<?xml version="1.0" standalone="no"?>
<!DOCTYPE svg PUBLIC "-//W3C//DTD SVG 20010904//EN"
 "http://www.w3.org/TR/2001/REC-SVG-20010904/DTD/svg10.dtd">
<svg version="1.0" xmlns="http://www.w3.org/2000/svg"
 width="181.000000pt" height="179.000000pt" viewBox="0 0 181.000000 179.000000"
 preserveAspectRatio="xMidYMid meet">

<g transform="translate(0.000000,179.000000) scale(0.100000,-0.100000)"
fill="#000000" stroke="none">
<path d="M1225 1524 c-214 -48 -330 -88 -465 -161 -108 -58 -288 -181 -302
-206 -7 -15 -7 -18 2 -12 7 4 17 1 22 -6 6 -10 7 -7 3 10 -6 20 -4 23 9 18 9
-4 51 0 94 8 61 12 174 15 548 15 l470 0 22 -24 c21 -26 37 -109 47 -246 20
-297 26 -451 19 -503 -4 -34 -7 -65 -6 -69 1 -4 -4 -5 -12 -2 -8 3 -17 1 -21
-5 -11 -19 -1492 -8 -1510 11 -8 8 -9 210 -1 368 11 228 -7 216 -23 -15 -15
-222 -14 -358 1 -373 9 -9 198 -12 788 -12 751 0 777 1 794 19 16 18 17 38 7
268 -6 136 -15 358 -21 493 -6 135 -13 286 -16 336 l-6 92 -211 0 c-117 0
-221 -2 -232 -4z"/>
<path d="M395 1090 c3 -5 -11 -10 -31 -12 -33 -3 -38 -7 -55 -53 l-19 -50 42
-117 43 -117 83 -3 c46 -2 86 0 88 3 2 3 -21 79 -50 167 -30 88 -52 162 -50
164 2 2 -10 9 -26 15 -17 6 -28 7 -25 3z"/>
<path d="M516 1072 c-21 -34 -15 -84 22 -202 l40 -125 69 -7 c37 -4 79 -5 93
-3 l25 5 0 170 0 170 -122 0 c-67 0 -124 -3 -127 -8z"/>
<path d="M790 990 l0 -92 60 4 c49 3 66 10 87 30 34 34 33 78 -1 115 -20 22
-36 27 -85 31 l-61 4 0 -92z"/>
<path d="M1577 1019 c7 -7 15 -10 18 -7 3 3 -2 9 -12 12 -14 6 -15 5 -6 -5z"/>
<path d="M1553 975 c-3 -9 -3 -18 -1 -21 3 -3 8 4 11 16 6 23 -1 27 -10 5z"/>
<path d="M969 933 c-1 -5 -1 -12 0 -16 1 -5 -3 -6 -9 -2 -14 9 -23 -20 -16
-48 3 -15 20 -30 46 -42 40 -18 51 -40 29 -62 -15 -15 -58 -4 -70 18 -5 11
-19 19 -30 19 -12 0 -43 18 -69 40 -26 22 -51 40 -54 40 -3 0 -6 -31 -6 -69
l0 -68 113 -6 c98 -5 115 -3 137 12 17 12 25 28 25 47 0 23 -7 33 -40 50 -22
12 -43 19 -47 17 -5 -2 -8 5 -8 17 0 11 7 23 15 26 21 8 67 -4 60 -16 -3 -6 3
-10 14 -10 25 0 26 8 5 38 -11 16 -25 22 -55 22 -21 0 -40 -3 -40 -7z"/>
<path d="M1327 910 c-6 -16 -17 -30 -24 -30 -15 0 -17 -17 -3 -22 7 -2 6 -22
-1 -61 -7 -32 -9 -60 -6 -64 14 -14 36 21 42 69 5 38 12 52 26 55 23 6 25 23
3 23 -11 0 -14 5 -10 16 3 9 6 18 6 20 0 2 9 4 20 4 11 0 20 5 20 10 0 6 -14
10 -31 10 -25 0 -33 -6 -42 -30z"/>
<path d="M238 835 l-36 -95 70 0 c52 0 69 3 66 13 -3 6 -17 49 -32 95 -15 45
-29 82 -30 82 -2 0 -19 -43 -38 -95z"/>
<path d="M1423 900 c-3 -11 -12 -20 -19 -20 -17 0 -18 -12 -3 -27 7 -7 7 -23
-1 -52 -13 -47 -2 -71 31 -71 20 0 27 26 9 32 -19 6 0 90 21 95 22 6 25 23 5
23 -9 0 -12 7 -9 20 4 14 0 20 -12 20 -9 0 -19 -9 -22 -20z"/>
<path d="M1150 868 c-77 -52 -41 -156 46 -134 14 4 22 11 19 16 -3 5 0 7 8 4
16 -6 37 35 37 71 0 16 -11 30 -34 44 -41 26 -36 26 -76 -1z m68 -46 c4 -40
-12 -62 -44 -62 -26 0 -39 28 -28 63 15 50 67 50 72 -1z"/>
<path d="M7 205 c3 -8 11 -15 18 -15 7 0 15 -5 17 -10 2 -7 28 -5 73 4 l70 14
-65 0 c-36 0 -77 5 -92 11 -22 8 -26 8 -21 -4z"/>
<path d="M342 183 c6 -33 118 -25 118 7 0 6 -27 10 -61 10 -52 0 -60 -2 -57
-17z"/>
<path d="M1166 185 c7 -18 79 -21 89 -4 4 6 14 8 22 5 8 -3 11 -1 8 4 -3 6
-33 10 -65 10 -49 0 -58 -3 -54 -15z"/>
<path d="M378 143 c7 -3 16 -2 19 1 4 3 -2 6 -13 5 -11 0 -14 -3 -6 -6z"/>
<path d="M36 126 c15 -39 153 -46 884 -46 631 -1 809 5 873 29 9 3 -377 7
-859 8 -644 2 -880 6 -891 14 -11 10 -12 9 -7 -5z"/>
</g>
</svg>
